<?xml version="1.0" standalone="no"?>
<!DOCTYPE svg PUBLIC "-//W3C//DTD SVG 20010904//EN"
 "http://www.w3.org/TR/2001/REC-SVG-20010904/DTD/svg10.dtd">
<svg version="1.0" xmlns="http://www.w3.org/2000/svg"
 width="150.000000pt" height="172.000000pt" viewBox="0 0 150.000000 172.000000"
 preserveAspectRatio="xMidYMid meet">

<g transform="translate(0.000000,172.000000) scale(0.100000,-0.100000)"
fill="#000000" stroke="none">
<path d="M335 1617 c-22 -11 -44 -27 -48 -34 -4 -7 -15 -13 -23 -13 -15 0 -34
-38 -34 -69 0 -16 6 -18 45 -13 55 6 62 -14 9 -24 -25 -4 -38 -14 -44 -30 -5
-13 -14 -24 -20 -24 -5 0 -10 -6 -10 -13 0 -6 -13 -18 -30 -25 -18 -8 -30 -21
-30 -32 0 -10 -8 -21 -18 -24 -16 -6 -24 -23 -63 -152 -12 -42 -12 -314 1
-314 6 0 10 4 10 8 0 8 52 42 64 42 3 0 6 -7 6 -15 0 -8 -4 -15 -10 -15 -5 0
-10 -7 -10 -15 0 -8 -4 -15 -10 -15 -19 0 -12 -91 9 -109 14 -12 19 -35 23
-94 3 -43 10 -83 17 -90 6 -6 11 -19 11 -29 0 -9 6 -21 13 -25 7 -4 24 -30 37
-58 28 -59 54 -90 93 -111 38 -21 59 -12 51 21 -5 19 -2 25 10 25 9 0 16 -4
16 -10 0 -5 11 -20 25 -34 14 -14 25 -30 25 -36 0 -5 6 -10 14 -10 8 0 18 -9
21 -20 3 -11 13 -20 20 -20 8 0 19 -9 25 -19 5 -11 31 -34 57 -53 l48 -33 127
0 c121 0 128 1 143 23 9 12 24 22 33 22 10 0 28 14 42 30 14 17 30 30 37 30 6
0 15 9 18 20 3 11 10 20 14 20 4 0 22 20 41 45 38 50 55 57 48 20 -15 -78 112
-9 143 78 7 20 17 37 21 37 4 0 8 9 8 20 0 11 4 20 8 20 5 0 17 17 27 38 15
30 19 68 23 194 2 87 7 158 11 158 3 0 21 -9 39 -20 18 -11 35 -20 38 -20 3 0
3 64 1 142 -4 145 -18 243 -37 262 -5 5 -10 18 -10 27 0 10 -9 21 -20 24 -11
3 -20 15 -20 25 0 11 -12 28 -27 37 -47 30 -63 47 -63 65 0 12 -13 21 -40 28
-53 14 -52 32 3 28 44 -3 44 -3 39 50 -1 9 -17 26 -35 37 -116 70 -97 65 -253
65 -117 0 -149 -3 -170 -16 -13 -9 -42 -17 -64 -17 -22 0 -51 8 -64 17 -21 13
-52 16 -173 15 -131 0 -153 -3 -188 -22z m282 -32 c126 -34 140 -34 245 -9
124 30 173 30 266 0 101 -32 105 -40 27 -55 -57 -12 -65 -16 -65 -36 0 -18 7
-24 38 -30 96 -17 242 -164 242 -242 0 -16 6 -23 19 -23 22 0 29 -29 38 -157
l5 -83 -48 0 -49 0 0 -147 c0 -108 -3 -147 -12 -150 -7 -3 -13 -15 -13 -28 0
-12 -7 -36 -15 -51 -8 -16 -15 -39 -15 -51 0 -45 -42 -113 -70 -113 -5 0 -10
-7 -10 -15 0 -8 -4 -15 -10 -15 -5 0 -10 10 -10 23 -1 27 -22 57 -41 57 -15 0
-69 -62 -69 -79 0 -5 -17 -27 -37 -49 -21 -22 -47 -50 -58 -63 -22 -27 -76
-59 -97 -59 -8 0 -23 -9 -32 -19 -34 -38 -134 -38 -175 0 -11 10 -25 19 -31
19 -6 0 -32 11 -59 25 -34 17 -51 32 -55 50 -4 14 -18 31 -31 37 -14 6 -30 24
-37 40 -7 15 -15 28 -18 28 -3 0 -14 16 -24 35 -25 45 -57 47 -73 5 -13 -33
-24 -37 -47 -15 -8 8 -19 15 -24 15 -13 0 -32 47 -32 79 0 16 -7 34 -15 41 -8
7 -15 28 -15 48 0 21 -7 40 -17 47 -14 11 -17 33 -16 159 l0 146 -44 0 -45 0
5 88 c8 127 16 160 38 167 10 4 19 12 19 18 0 24 36 97 48 97 6 0 12 5 12 11
0 32 119 116 178 125 41 6 50 17 34 40 -4 6 -33 18 -65 26 -70 17 -64 26 33
56 80 25 151 27 227 7z"/>
<path d="M565 1327 c-47 -14 -115 -54 -115 -68 0 -5 -6 -9 -13 -9 -28 0 -96
-128 -97 -185 0 -16 -5 -47 -11 -67 -10 -39 -7 -48 34 -86 9 -9 17 -22 17 -29
0 -7 5 -13 10 -13 6 0 18 -8 29 -19 10 -10 27 -23 37 -29 17 -9 17 -14 6 -44
-17 -49 -15 -136 5 -184 13 -32 24 -43 55 -52 21 -7 45 -12 53 -12 9 0 15 -9
15 -24 0 -46 18 -76 44 -76 13 0 26 -6 29 -12 4 -10 7 -10 18 -1 16 16 149 18
149 3 0 -5 7 -10 15 -10 8 0 15 5 15 10 0 6 11 10 24 10 27 0 36 16 36 66 0
29 3 34 24 34 13 0 38 6 56 14 59 24 88 144 55 223 -14 34 -14 37 4 55 11 10
23 18 26 18 7 0 45 39 45 46 0 4 12 18 26 31 25 23 26 28 22 101 -3 57 -12 93
-33 137 -32 68 -40 77 -113 129 -70 49 -134 63 -206 46 -34 -8 -73 -10 -103
-6 -94 14 -118 15 -158 3z m150 -61 c40 -14 90 -11 101 5 9 15 138 11 160 -6
10 -8 25 -15 33 -15 21 0 56 -43 86 -105 35 -70 48 -195 21 -195 -9 0 -16 -7
-16 -15 0 -9 -7 -18 -15 -21 -8 -4 -15 -11 -15 -16 0 -15 -43 -58 -58 -58 -7
0 -15 14 -19 31 -3 17 -12 33 -19 36 -8 3 -14 11 -14 19 0 7 -11 16 -25 20
-21 5 -22 8 -10 20 7 8 17 14 21 14 3 0 15 10 26 23 l20 22 -3 -35 c-3 -37 1
-43 26 -34 16 7 22 94 6 94 -5 0 -12 11 -15 25 l-7 25 -22 -22 c-12 -13 -31
-28 -42 -34 -11 -6 -24 -20 -30 -32 -5 -12 -18 -22 -27 -22 -10 0 -18 -7 -18
-15 0 -8 -6 -15 -12 -16 -10 0 -10 -2 0 -6 6 -2 12 -11 12 -19 0 -8 9 -14 20
-14 13 0 24 -10 30 -25 5 -14 14 -25 19 -25 24 0 58 -51 70 -104 7 -31 17 -56
22 -56 5 0 9 -9 9 -20 0 -11 -4 -20 -9 -20 -5 0 -15 -23 -22 -51 -16 -63 -44
-81 -83 -55 -14 9 -32 16 -39 16 -8 0 -26 11 -41 25 -15 14 -34 25 -42 25 -9
0 -14 10 -14 30 0 20 5 30 15 30 8 0 15 5 15 11 0 7 11 22 25 35 14 13 25 34
25 49 l0 25 -96 0 c-71 0 -99 -4 -110 -15 -9 -8 -11 -15 -5 -15 6 0 11 -6 11
-12 0 -7 16 -30 35 -50 42 -44 46 -80 10 -96 -14 -6 -25 -16 -25 -22 0 -5 -7
-10 -16 -10 -9 0 -32 -10 -51 -21 -44 -27 -78 -15 -88 31 -4 17 -13 34 -21 37
-16 6 -20 93 -5 93 5 0 17 25 26 55 8 30 20 55 25 55 6 0 10 7 10 15 0 8 8 15
18 15 9 0 22 10 27 23 6 12 20 23 31 25 27 4 37 37 17 57 -8 8 -18 15 -22 15
-3 0 -14 13 -24 29 -9 16 -28 32 -41 35 -14 3 -27 15 -31 26 -6 18 -7 18 -24
1 -36 -36 -37 -125 0 -134 16 -4 19 0 19 33 l0 37 35 -31 c31 -27 33 -31 15
-34 -11 -2 -20 -10 -20 -18 0 -8 -6 -17 -14 -20 -8 -3 -17 -21 -20 -40 -5 -25
-12 -34 -26 -34 -11 0 -20 4 -20 10 0 5 -16 26 -35 46 -19 19 -35 40 -35 45 0
5 -7 9 -16 9 -25 0 -14 122 15 173 11 21 21 44 21 52 0 8 4 15 9 15 5 0 11 9
14 20 3 11 12 20 21 20 9 0 16 5 16 10 0 6 8 10 18 10 9 0 26 7 36 15 25 19
118 19 171 1z m74 -519 c-2 -1 -11 -8 -20 -15 -13 -10 -19 -9 -29 3 -11 13 -8
15 20 15 19 0 31 -1 29 -3z m-9 -172 c7 -8 27 -19 44 -23 28 -7 31 -12 34 -51
3 -42 2 -43 -20 -36 -45 15 -109 17 -138 5 -24 -10 -32 -10 -45 3 -34 34 -14
77 36 77 10 0 19 4 19 8 0 8 36 30 51 31 4 1 12 -6 19 -14z"/>
</g>
</svg>
